<svg width="23" height="24" viewBox="0 0 23 24" fill="none" xmlns="http://www.w3.org/2000/svg">
<path d="M22.9976 5.03567C22.9969 4.9308 22.9896 4.82608 22.9756 4.72217C22.918 4.29296 22.7533 3.88592 22.4973 3.53978C22.4342 3.4517 22.3785 3.36063 22.3198 3.27404C22.2479 3.2203 22.1657 3.16805 22.0924 3.10534C21.6702 2.72395 21.128 2.50848 20.5635 2.49773C19.582 2.48728 18.5989 2.49773 17.6159 2.49773H17.4692V2.33799C17.4692 1.76023 17.4692 1.18397 17.4692 0.606215C17.4674 0.517834 17.4458 0.431029 17.4061 0.352419C17.334 0.216025 17.2178 0.109231 17.0771 0.0501741C16.9364 -0.00888282 16.7799 -0.0165573 16.6343 0.0284602C16.4981 0.0686183 16.3788 0.153505 16.2949 0.269892C16.211 0.386278 16.1674 0.527626 16.1707 0.671904V2.48728H6.56926V2.33799C6.56926 1.76769 6.56926 1.19891 6.56926 0.630107C6.56848 0.505682 6.53081 0.384386 6.46118 0.282102C6.39154 0.179818 6.29319 0.101305 6.17899 0.0568258C6.06235 0.00994137 5.93549 -0.00426113 5.81163 0.0156943C5.68776 0.0356498 5.57142 0.0890345 5.47472 0.170288C5.39896 0.24486 5.33954 0.334879 5.30035 0.434445C5.26116 0.534011 5.24308 0.640875 5.24731 0.748043C5.24731 1.284 5.24731 1.82144 5.24731 2.35739V2.50669H5.08591C4.19092 2.50669 3.29592 2.50669 2.40092 2.50669C2.30244 2.50653 2.20417 2.51603 2.10748 2.53505C1.45502 2.65036 0.872688 3.02057 0.48474 3.56666C0.172255 3.9789 0.000691332 4.48373 -0.00384146 5.00433C-0.00384146 10.5241 -0.00384146 16.0434 -0.00384146 21.5622C-0.00478397 21.6624 0.00455878 21.7625 0.0240354 21.8608C0.140206 22.4688 0.460802 23.0167 0.930772 23.4104C1.38232 23.7976 1.95422 24.0092 2.5447 24.0076C8.51136 24.0135 14.478 24.0135 20.4447 24.0076C20.6984 24.0032 20.9503 23.9625 21.193 23.8866C21.8158 23.7033 22.3428 23.2781 22.6602 22.7028C22.8773 22.3389 22.9939 21.9222 22.9976 21.4965C22.9986 16.0046 22.9986 10.5176 22.9976 5.03567ZM21.6947 8.79034C21.6947 12.9765 21.6947 17.1621 21.6947 21.3472C21.6981 21.6552 21.5926 21.9543 21.3973 22.1897C21.202 22.4251 20.93 22.5813 20.631 22.6296C20.5536 22.6443 20.475 22.6523 20.3963 22.6535H2.56671C2.26436 22.6515 1.9728 22.539 1.7452 22.3364C1.51761 22.1339 1.36915 21.8549 1.32692 21.5502C1.31297 21.4588 1.30562 21.3665 1.30491 21.274C1.30491 17.1208 1.30491 12.9675 1.30491 8.81422V8.653H21.6991L21.6947 8.79034Z" fill="#888888"/>
<path d="M18.552 11.0044H15.082V14.5381H18.552V11.0044Z" fill="#888888"/>
<path d="M7.9666 11.0029V14.5441H7.81988C6.75762 14.5441 5.69536 14.5441 4.63457 14.5441C4.51572 14.5441 4.47904 14.5172 4.48051 14.3948C4.48051 13.3095 4.48051 12.2256 4.48051 11.1403V11.0044L7.9666 11.0029Z" fill="#888888"/>
<path d="M13.2566 11.0073H9.78516V14.5366H13.2566V11.0073Z" fill="#888888"/>
<path d="M7.96654 16.437H4.49219V19.9677H7.96654V16.437Z" fill="#888888"/>
<path d="M13.2639 16.437H9.78516V19.9633H13.2639V16.437Z" fill="#888888"/>
</svg>
