<svg width="13" height="12" viewBox="0 0 13 12" fill="none" xmlns="http://www.w3.org/2000/svg">
<path fill-rule="evenodd" clip-rule="evenodd" d="M2.09098 0.46967C1.79809 0.176777 1.32322 0.176777 1.03032 0.46967C0.737429 0.762563 0.737429 1.23744 1.03032 1.53033L5.29846 5.79847L0.571225 10.5257C0.278332 10.8186 0.278332 11.2935 0.571225 11.5864C0.864118 11.8793 1.33899 11.8793 1.63188 11.5864L6.35912 6.85913L10.9854 11.4854C11.2783 11.7783 11.7532 11.7783 12.0461 11.4854C12.339 11.1925 12.339 10.7177 12.0461 10.4248L7.41978 5.79847L11.587 1.63126C11.8799 1.33837 11.8799 0.863495 11.587 0.570601C11.2941 0.277708 10.8192 0.277708 10.5263 0.570601L6.35912 4.73781L2.09098 0.46967Z" fill="#888888"/>
</svg>
