<svg width="17" height="15" viewBox="0 0 17 15" fill="none" xmlns="http://www.w3.org/2000/svg">
<path d="M0.233598 6.11796C1.95404 7.83841 3.67449 9.55885 5.39493 11.2793C5.46566 11.35 5.54786 11.4269 5.63656 11.4586C5.87666 11.5431 6.10222 11.3623 6.10681 11.0858C6.10949 10.9245 6.11026 10.7635 6.11026 10.6022C6.11026 10.3621 6.11026 10.1216 6.11026 9.88153C6.11026 9.67533 6.11026 9.46939 6.11026 9.2637C6.11026 9.1067 6.11026 8.94956 6.11026 8.7923C6.11026 8.40577 6.24827 8.27502 6.63595 8.29987C8.38545 8.41113 10.003 8.92497 11.4731 9.88918C13.1855 11.0128 14.4647 12.5016 15.2695 14.3906C15.3609 14.6051 15.4924 14.6965 15.669 14.6774C15.8571 14.656 15.9684 14.534 15.9948 14.295C16.2582 11.8945 15.7486 9.66896 14.4066 7.66216C12.9244 5.4447 10.874 4.01443 8.26157 3.43139C7.71218 3.30867 7.1429 3.267 6.57936 3.20927C6.21042 3.17103 6.10873 3.08348 6.10873 2.71225C6.10873 1.95411 6.10873 1.19596 6.10873 0.437822C6.10873 0.258131 6.0594 0.111321 5.88277 0.0329455C5.69161 -0.0515475 5.55589 0.0382975 5.42399 0.168669C4.48348 1.11173 3.54208 2.05351 2.59978 2.99402L0.234363 5.35906C-0.077993 5.67409 -0.0779938 5.80676 0.233598 6.11796Z" fill="#888888"/>
</svg>
