<svg width="19" height="19" viewBox="0 0 19 19" fill="none" xmlns="http://www.w3.org/2000/svg">
<path d="M17.4647 4.8785C17.4647 5.3191 17.1255 5.65908 16.686 5.65944C15.4914 5.66055 14.2969 5.66055 13.1025 5.65944C12.6657 5.65944 12.3208 5.31873 12.3199 4.89119C12.3199 4.45739 12.6631 4.11741 13.1052 4.11686C13.7307 4.11588 14.3555 4.11588 14.9797 4.11686H15.0842C13.4993 2.21499 10.7031 1.06445 7.80249 1.73483C4.58413 2.47954 2.16438 5.31285 2.04315 8.70027C1.99881 8.75693 1.9622 8.79226 1.93902 8.83494C1.79037 9.1085 1.56391 9.26175 1.25134 9.25972C0.938779 9.2577 0.722799 9.09525 0.564586 8.8285C0.509395 8.73467 0.519697 8.6368 0.484375 8.54555V8.37998C0.502772 8.30768 0.528344 8.23612 0.54067 8.16271C0.605059 7.77417 0.642588 7.37974 0.732365 6.99745C1.23258 4.86304 2.35589 3.12343 4.1036 1.80032C5.47105 0.763656 7.01878 0.179002 8.73043 0.0342183C8.84872 0.0242839 8.96683 0.0114061 9.08494 0H9.876C10.0035 0.0115901 10.131 0.0244679 10.2588 0.0349541C11.1675 0.108826 12.059 0.324214 12.9012 0.673327C14.0157 1.13325 14.9957 1.79315 15.8489 2.64345C15.8673 2.66185 15.8879 2.68025 15.9225 2.71115V2.5982C15.9225 2.16017 15.9214 1.72214 15.9225 1.28429C15.924 0.889123 16.2143 0.567729 16.6119 0.517505C16.9772 0.471329 17.3396 0.719872 17.4373 1.08781C17.455 1.15581 17.464 1.22579 17.464 1.29606C17.4656 2.4899 17.4658 3.68404 17.4647 4.8785Z" fill="#888888"/>
<path d="M18.4948 9.03752C18.4701 11.2304 17.7615 13.1737 16.3403 14.8447C15.0967 16.3069 13.5339 17.2707 11.6725 17.7426C10.8113 17.9607 9.92203 18.0464 9.03509 17.9968C7.10342 17.8921 5.38569 17.2242 3.87696 16.019C3.624 15.8166 3.39239 15.5876 3.15231 15.3694C3.126 15.3456 3.10926 15.3112 3.0881 15.2818L3.0583 15.2989V15.3944C3.0583 15.8385 3.05959 16.2826 3.0583 16.7267C3.05683 17.1217 2.76671 17.442 2.36841 17.4927C2.00765 17.5389 1.64781 17.295 1.54662 16.9315C1.52742 16.8639 1.51746 16.7941 1.517 16.7239C1.51517 15.5234 1.51517 14.3228 1.517 13.1224C1.51647 13.0211 1.53599 12.9207 1.57444 12.827C1.61288 12.7333 1.6695 12.6481 1.74102 12.5764C1.81254 12.5047 1.89755 12.4478 1.99114 12.4091C2.08474 12.3704 2.18508 12.3506 2.28636 12.3508C3.48695 12.3495 4.68747 12.3495 5.88793 12.3508C5.9892 12.3509 6.08946 12.371 6.18298 12.4099C6.27649 12.4488 6.36143 12.5057 6.43295 12.5774C6.50447 12.6491 6.56117 12.7342 6.5998 12.8278C6.63843 12.9214 6.65825 13.0217 6.65812 13.123C6.65798 13.2243 6.63791 13.3246 6.59903 13.4181C6.56015 13.5116 6.50323 13.5965 6.43152 13.668C6.35982 13.7396 6.27472 13.7963 6.18111 13.8349C6.08749 13.8735 5.98718 13.8933 5.88591 13.8932C5.25796 13.8944 4.63013 13.8944 4.00243 13.8932H3.89738C5.59248 15.9044 8.57977 17.067 11.6445 16.1507C14.8011 15.2069 17.0729 12.2095 16.9461 8.7864C16.9844 8.73894 17.0159 8.71061 17.0343 8.67602C17.1803 8.39805 17.4055 8.23762 17.7223 8.23634C18.0391 8.23505 18.2558 8.39952 18.417 8.66885C18.4874 8.7899 18.4963 8.9093 18.4948 9.03752Z" fill="#888888"/>
</svg>
