<svg width="276" height="95" viewBox="0 0 276 95" fill="none" xmlns="http://www.w3.org/2000/svg">
<g filter="url(#filter0_d_3994_18730)">
<path d="M20 27.0539C20 20.949 24.949 16 31.0539 16H63.9461C70.051 16 75 20.949 75 27.0539V59.9461C75 66.051 70.051 71 63.9461 71H31.0539C24.949 71 20 66.051 20 59.9461V27.0539Z" fill="black"/>
<path d="M59.7828 24.0836L45.3505 45.8454C45.1452 46.1544 44.8667 46.4079 44.5398 46.5832C44.2128 46.7585 43.8476 46.8503 43.4766 46.8504H37.2488C36.8076 46.8495 36.3765 46.7189 36.0089 46.475C35.6413 46.231 35.3536 45.8844 35.1814 45.4782L32.7634 39.7354C32.6185 39.3941 32.5605 39.0221 32.5948 38.6528C32.6291 38.2835 32.7546 37.9285 32.9599 37.6197L41.9397 24.079L59.7828 24.0836Z" fill="white"/>
<path d="M61.9681 49.3833L52.9883 62.924H35.1391L49.5714 41.1622C49.7763 40.8533 50.0546 40.5999 50.3813 40.4248C50.7081 40.2497 51.0731 40.1583 51.4438 40.1587H57.6716C58.1128 40.1585 58.5443 40.2884 58.912 40.5322C59.2798 40.776 59.5674 41.1229 59.739 41.5294L62.166 47.2721C62.3103 47.6137 62.3677 47.9857 62.3331 48.3549C62.2986 48.724 62.1732 49.0789 61.9681 49.3878" fill="white"/>
<path d="M39.6726 49.9711C41.8382 44.7407 41.8367 42.2638 39.6726 37.0289C44.903 39.193 47.3799 39.193 52.6148 37.0289C50.4508 42.2578 50.4508 44.7362 52.6148 49.9711C47.3845 47.8055 44.9075 47.8055 39.6726 49.9711Z" fill="#FEBC10"/>
</g>
<g filter="url(#filter1_d_3994_18730)">
<path d="M225.599 23.3536C225.812 23.3156 226.032 23.3597 226.214 23.477C228.83 24.4979 231.443 25.5236 234.053 26.5542C234.716 26.8155 234.644 26.6921 234.644 27.4372C234.644 29.7378 234.644 32.0336 234.644 34.3391C234.644 35.2415 234.516 35.1737 235.437 35.1737C237.373 35.1737 239.309 35.1737 241.245 35.1737C242.07 35.1737 242.002 35.2221 242.002 34.448C242.002 31.0079 242.002 27.5678 242.002 24.1277C241.967 23.8657 241.984 23.5992 242.053 23.3439C242.268 23.2835 242.435 23.4141 242.609 23.4818C245.224 24.5027 247.837 25.5276 250.449 26.5566C251.134 26.8276 251.047 26.7042 251.049 27.4323C251.049 29.8064 251.049 32.1804 251.049 34.5544C251.049 35.1737 251.049 35.1786 251.69 35.1786C252.806 35.1786 253.921 35.1907 255.034 35.1786C255.404 35.1786 255.54 35.2753 255.535 35.6624C255.518 37.7211 255.535 39.775 255.535 41.841C255.535 42.3248 255.521 42.3442 254.993 42.349C253.856 42.349 252.716 42.349 251.577 42.349C251.073 42.349 251.061 42.349 251.061 42.874C251.061 46.2439 251.061 49.609 251.061 52.9765C251.068 53.4159 251.22 53.8409 251.492 54.1861C252.474 55.536 253.827 55.9883 255.453 55.773C255.591 55.8674 255.54 56.015 255.542 56.1529C255.542 58.6478 255.542 61.1477 255.542 63.6523C255.542 64.2063 255.542 64.2378 254.998 64.2765C252.661 64.4337 250.34 64.3563 248.116 63.5241C245.252 62.4548 243.449 60.4082 242.655 57.4761C242.317 56.16 242.154 54.8047 242.171 53.4458V42.9732C242.171 42.3684 242.171 42.3611 241.586 42.3611C240.47 42.3611 239.355 42.378 238.242 42.378C237.223 42.378 236.205 42.3611 235.188 42.3611C234.644 42.3611 234.637 42.3611 234.637 42.9272C234.637 46.2729 234.637 49.6162 234.637 52.9571C234.636 53.3472 234.753 53.7283 234.973 54.0506C235.798 55.3207 236.996 55.8746 238.486 55.8384C238.68 55.8384 238.873 55.7948 239.065 55.773C239.125 55.9317 239.144 56.1032 239.12 56.2714C239.12 58.718 239.12 61.1646 239.12 63.6112C239.12 64.2111 239.12 64.2426 238.547 64.2789C236.369 64.4216 234.191 64.3636 232.077 63.6571C228.619 62.5008 226.678 60.0453 226.027 56.5157C225.841 55.4659 225.752 54.4008 225.764 53.3345C225.764 49.967 225.764 46.5995 225.764 43.232C225.764 43.0869 225.764 42.9417 225.764 42.7966C225.805 42.4288 225.621 42.349 225.28 42.3539C224.164 42.3684 223.051 42.3539 221.936 42.3539C221.619 42.3539 221.304 42.3539 220.99 42.3539C220.675 42.3539 220.617 42.2281 220.617 41.9595C220.617 39.8282 220.617 37.6945 220.617 35.5632C220.617 35.21 220.789 35.1761 221.065 35.1786C222.299 35.1786 223.535 35.1786 224.772 35.1786H225.285C225.49 35.1786 225.597 35.0891 225.592 34.8737C225.592 34.7044 225.592 34.5351 225.592 34.3657V23.3536H225.599Z" fill="white"/>
<path d="M171.545 35.2536C170.853 37.726 170.178 40.1452 169.505 42.5498C169.667 42.7603 169.875 42.6611 170.057 42.6902C170.437 42.7482 170.608 42.5813 170.705 42.2063C171.031 40.8889 171.539 39.6235 172.215 38.4469C173.222 36.7172 174.564 35.377 176.519 34.7504C177.861 34.3024 179.302 34.2429 180.676 34.5786C182.89 35.1278 184.337 36.56 185.179 38.6453C185.6 39.782 185.838 40.9782 185.883 42.1894C185.898 42.4168 185.811 42.6974 186.213 42.6926C186.885 42.6926 187.009 42.7071 187.093 42.3224C187.293 41.4493 187.586 40.6001 187.967 39.7896C189.223 37.0849 191.19 35.2149 194.178 34.5907C195.844 34.2293 197.575 34.2967 199.208 34.7867C201.628 35.5125 203.201 37.1623 204.108 39.4799C204.8 41.2435 205.013 43.0917 205.016 44.9666C205.027 50.95 205.027 56.9327 205.016 62.9145C205.016 63.5411 205.016 63.5459 204.382 63.5459C201.812 63.5459 199.243 63.5459 196.675 63.5459C196.051 63.5459 196.046 63.5459 196.046 62.9121C196.046 57.827 196.046 52.7402 196.046 47.6519C196.046 46.9978 196.007 46.3443 195.93 45.6948C195.625 43.1546 193.655 41.9257 191.212 42.741C190.026 43.1353 189.276 43.9506 188.792 45.0876C188.391 46.1288 188.205 47.2408 188.247 48.3559C188.247 52.9362 188.247 57.5141 188.247 62.0896C188.247 62.4307 188.231 62.7694 188.247 63.108C188.264 63.4467 188.105 63.5532 187.764 63.5532C185.097 63.5435 182.431 63.5435 179.764 63.5532C179.457 63.5532 179.312 63.4637 179.341 63.1395C179.349 62.9703 179.349 62.8007 179.341 62.6315C179.341 57.5463 179.341 52.4596 179.341 47.3713C179.345 46.7657 179.296 46.161 179.193 45.5641C178.905 43.9022 177.983 42.8861 176.532 42.5813C175.782 42.4302 175.005 42.5012 174.295 42.7857C173.585 43.0702 172.974 43.5558 172.537 44.1828C171.99 45.0475 171.675 46.0378 171.62 47.0592C171.576 47.589 171.569 48.1236 171.566 48.6559C171.566 53.3555 171.566 58.0544 171.566 62.7524C171.566 63.6475 171.617 63.5387 170.797 63.5411C168.3 63.5411 165.804 63.5411 163.308 63.5411C162.679 63.5411 162.674 63.5411 162.672 62.9097V35.8148C162.672 35.2149 162.672 35.2004 163.173 35.2004C165.863 35.2004 168.554 35.2004 171.245 35.2004C171.344 35.2124 171.443 35.2318 171.54 35.2584" fill="white"/>
<path d="M91.9093 50.4945C93.2401 50.4945 94.5709 50.4945 95.9065 50.4945C96.3905 50.4945 96.4897 50.4219 96.4945 51.0339C96.4909 51.6868 96.5722 52.3374 96.7365 52.9693C97.1793 54.6385 98.1883 55.79 99.8433 56.3392C101.625 56.9505 103.566 56.9111 105.321 56.2279C107.349 55.4562 108.278 53.7628 107.983 51.6097C107.838 50.5961 107.284 49.88 106.478 49.3163C105.505 48.6734 104.412 48.2355 103.265 48.0293C101.3 47.6156 99.3206 47.2624 97.3559 46.8391C95.739 46.5058 94.1865 45.9135 92.7586 45.0852C89.8913 43.3917 88.2968 40.8516 87.7402 37.6293C87.4458 35.9542 87.4639 34.2392 87.7935 32.5708C88.6113 28.417 91.0963 25.6084 94.9048 23.8956C96.776 23.0861 98.7755 22.6135 100.811 22.4997C103.686 22.2941 106.531 22.4997 109.28 23.4383C114.272 25.156 117.055 28.6444 117.628 33.9037C117.699 34.5536 117.731 35.2071 117.724 35.8608C117.724 36.4777 117.724 36.4826 117.069 36.4826H109.084C109.011 36.4826 108.936 36.4826 108.864 36.4826C108.544 36.5189 108.448 36.3689 108.443 36.0616C108.445 35.6012 108.414 35.1412 108.351 34.6851C108.014 32.5369 106.838 31.112 104.702 30.5507C103.102 30.1123 101.408 30.1688 99.8409 30.7128C98.2197 31.2741 97.1938 32.3917 96.9542 34.1214C96.7389 35.6818 97.2712 36.9301 98.648 37.7672C99.5471 38.2904 100.529 38.6561 101.552 38.8485C103.487 39.2598 105.445 39.6202 107.388 40.0339C109.097 40.3775 110.734 41.0134 112.227 41.9136C115.162 43.7183 116.824 46.3407 117.255 49.7518C117.511 51.6539 117.403 53.5874 116.936 55.4489C116.169 58.4439 114.368 60.6671 111.755 62.2662C109.79 63.4324 107.596 64.161 105.324 64.4023C102.605 64.7665 99.842 64.6354 97.1696 64.0153C94.9919 63.4976 92.9957 62.6049 91.2971 61.1243C89.0348 59.1503 87.8636 56.6101 87.4378 53.6805C87.3189 52.7923 87.2712 51.8959 87.295 51.0001C87.295 50.5162 87.3095 50.4945 87.8298 50.492C89.1872 50.492 90.5446 50.492 91.902 50.492" fill="white"/>
<path d="M150.077 63.4781L152.061 56.16C151.988 56.0972 151.957 56.0463 151.923 56.0439C151.033 55.9762 151.028 55.9738 150.774 56.8011C150.41 58.0323 149.889 59.2114 149.223 60.3089C147.602 62.8999 145.211 64.1506 142.206 64.3054C140.848 64.4036 139.484 64.2586 138.177 63.8772C136.621 63.4123 135.253 62.4624 134.275 61.1659C133.297 59.8695 132.758 58.2945 132.738 56.6705C132.738 56.2592 132.738 55.8456 132.755 55.4367C132.972 52.5337 134.381 50.4242 136.912 49.038C138.41 48.2288 140.056 47.7286 141.751 47.5671C144.258 47.3059 146.764 47.0978 149.274 46.8728C149.823 46.822 149.837 46.8317 149.83 46.2995C149.858 45.6956 149.838 45.0905 149.77 44.4899C149.501 42.8667 148.545 41.9014 146.968 41.5385C145.975 41.2957 144.937 41.3048 143.948 41.5651C142.407 41.9788 141.528 42.99 141.243 44.5456C141.085 45.4358 141.09 45.4382 140.207 45.4382H132.791C132.14 45.4382 132.145 45.4382 132.188 44.802C132.389 41.7829 133.541 39.2379 135.891 37.2711C137.364 36.0756 139.109 35.2606 140.972 34.8979C144.56 34.1237 148.139 34.1407 151.671 35.1979C156.095 36.5236 158.642 39.8354 158.708 44.5819C158.795 50.7072 158.734 56.835 158.734 62.9676C158.734 63.5361 158.734 63.5506 158.275 63.5531C155.632 63.5531 152.991 63.5531 150.35 63.5531C150.257 63.5395 150.165 63.5185 150.074 63.4902M144.671 58.2139C145.647 58.2437 146.603 57.9342 147.377 57.3382C149.019 56.0584 149.624 54.261 149.828 52.2773C149.859 51.9749 149.724 51.9047 149.445 51.9386C147.887 52.1273 146.324 52.2603 144.78 52.5555C144.011 52.6823 143.296 53.0342 142.726 53.5667C141.872 54.3965 141.732 55.4174 142.019 56.5108C142.278 57.4785 143.016 57.9623 143.955 58.1535C144.196 58.1885 144.438 58.2087 144.681 58.2139" fill="white"/>
<path d="M120.651 43.4302V24.3985C120.661 24.2535 120.661 24.1081 120.651 23.9631C120.605 23.5663 120.794 23.4792 121.157 23.4792C123.799 23.4922 126.44 23.4922 129.079 23.4792C129.483 23.4792 129.587 23.6389 129.563 23.9921C129.548 24.1373 129.563 24.2848 129.563 24.4276V62.5684C129.563 62.7135 129.563 62.8587 129.563 63.0038C129.563 63.5433 129.563 63.553 128.992 63.553C126.45 63.553 123.907 63.553 121.363 63.553C120.637 63.553 120.671 63.6086 120.671 62.8272V43.4302" fill="white"/>
<path d="M208.901 49.3379V36.0469C208.901 35.8776 208.901 35.7082 208.901 35.5389C208.881 35.297 208.983 35.1809 209.232 35.193C209.377 35.193 209.523 35.193 209.668 35.193C212.113 35.193 214.559 35.193 217.007 35.193C217.921 35.193 217.788 35.1131 217.788 35.9526C217.788 43.0488 217.788 50.1451 217.788 57.2414C217.788 59.1525 217.788 61.0645 217.788 62.9772C217.788 63.5409 217.788 63.5506 217.241 63.553C214.649 63.553 212.057 63.553 209.465 63.553C208.906 63.553 208.901 63.553 208.901 62.9289C208.901 59.2194 208.901 55.5149 208.901 51.8151V49.3379Z" fill="white"/>
<path d="M209.378 23.344C212.255 24.752 215.102 24.7955 218.025 23.5061C217.525 24.9576 216.968 26.3365 216.953 27.8606C216.939 29.3847 217.391 30.7491 217.958 32.2611C216.441 31.6587 215.054 31.1144 213.53 31.095C212.005 31.0757 210.648 31.5571 209.07 32.1063C210.59 29.1428 210.655 26.3002 209.378 23.3488" fill="#FEBC10"/>
</g>
<defs>
<filter id="filter0_d_3994_18730" x="0" y="0" width="95" height="95" filterUnits="userSpaceOnUse" color-interpolation-filters="sRGB">
<feFlood flood-opacity="0" result="BackgroundImageFix"/>
<feColorMatrix in="SourceAlpha" type="matrix" values="0 0 0 0 0 0 0 0 0 0 0 0 0 0 0 0 0 0 127 0" result="hardAlpha"/>
<feOffset dy="4"/>
<feGaussianBlur stdDeviation="10"/>
<feComposite in2="hardAlpha" operator="out"/>
<feColorMatrix type="matrix" values="0 0 0 0 0 0 0 0 0 0 0 0 0 0 0 0 0 0 0.16 0"/>
<feBlend mode="normal" in2="BackgroundImageFix" result="effect1_dropShadow_3994_18730"/>
<feBlend mode="normal" in="SourceGraphic" in2="effect1_dropShadow_3994_18730" result="shape"/>
</filter>
<filter id="filter1_d_3994_18730" x="67.2891" y="6.427" width="208.262" height="82.1765" filterUnits="userSpaceOnUse" color-interpolation-filters="sRGB">
<feFlood flood-opacity="0" result="BackgroundImageFix"/>
<feColorMatrix in="SourceAlpha" type="matrix" values="0 0 0 0 0 0 0 0 0 0 0 0 0 0 0 0 0 0 127 0" result="hardAlpha"/>
<feOffset dy="4"/>
<feGaussianBlur stdDeviation="10"/>
<feComposite in2="hardAlpha" operator="out"/>
<feColorMatrix type="matrix" values="0 0 0 0 0 0 0 0 0 0 0 0 0 0 0 0 0 0 0.16 0"/>
<feBlend mode="normal" in2="BackgroundImageFix" result="effect1_dropShadow_3994_18730"/>
<feBlend mode="normal" in="SourceGraphic" in2="effect1_dropShadow_3994_18730" result="shape"/>
</filter>
</defs>
</svg>
