<svg width="25" height="25" viewBox="0 0 25 25" fill="none" xmlns="http://www.w3.org/2000/svg">
<rect x="1" y="1" width="23" height="23" rx="11.5" stroke="#F53F3F" stroke-width="2"/>
<path d="M11.735 15.3505L11.339 10.3105V6.71055H13.679V10.3105L13.265 15.3505H11.735ZM13.463 19.1305C13.199 19.3945 12.881 19.5265 12.509 19.5265C12.137 19.5265 11.819 19.3945 11.555 19.1305C11.291 18.8665 11.159 18.5485 11.159 18.1765C11.159 17.8045 11.285 17.4865 11.537 17.2225C11.801 16.9585 12.125 16.8265 12.509 16.8265C12.881 16.8265 13.199 16.9585 13.463 17.2225C13.727 17.4865 13.859 17.8045 13.859 18.1765C13.859 18.5485 13.727 18.8665 13.463 19.1305Z" fill="#F53F3F"/>
</svg>
